<!--
Copyright © 2025 Leviftas authors. All rights reserved.

Licensed under the GNU General Public License v3.0 (the "License");
you may not use this file except in compliance with the License.
You may obtain a copy of the License at

https://www.gnu.org/licenses/gpl-3.0.html

Unless required by applicable law or agreed to in writing, software
distributed under the License is distributed on an "AS IS" BASIS,
WITHOUT WARRANTIES OR CONDITIONS OF ANY KIND, either express or implied.
See the License for the specific language governing permissions and
limitations under the License.

mobile-tech-display.svg

- Author   : FrostLeo <frostleo.dev@gmail.com>
- Created  : 2025/10/25
- Modified : 2025/10/25
-->

<svg xmlns="http://www.w3.org/2000/svg" width="600" height="600" viewBox="0 0 600 600">
    <defs>
        <filter id="container-shadow" x="-50%" y="-50%" width="200%" height="200%">
            <feGaussianBlur in="SourceAlpha" stdDeviation="10"/>
            <feOffset dx="0" dy="4" result="offsetblur"/>
            <feFlood flood-color="#000000" flood-opacity="0.08"/>
            <feComposite in2="offsetblur" operator="in"/>
            <feMerge>
                <feMergeNode/>
                <feMergeNode in="SourceGraphic"/>
            </feMerge>
        </filter>

        <filter id="subtle-shadow" x="-50%" y="-50%" width="200%" height="200%">
            <feGaussianBlur in="SourceAlpha" stdDeviation="20"/>
            <feOffset dx="0" dy="10" result="offsetblur"/>
            <feFlood flood-color="#000000" flood-opacity="0.05"/>
            <feComposite in2="offsetblur" operator="in"/>
            <feMerge>
                <feMergeNode/>
                <feMergeNode in="SourceGraphic"/>
            </feMerge>
        </filter>


        <filter id="logo-shadow">
            <feGaussianBlur in="SourceAlpha" stdDeviation="4"/>
            <feOffset dx="0" dy="2" result="offsetblur"/>
            <feFlood flood-color="#000000" flood-opacity="0.1"/>
            <feComposite in2="offsetblur" operator="in"/>
            <feMerge>
                <feMergeNode/>
                <feMergeNode in="SourceGraphic"/>
            </feMerge>
        </filter>
    </defs>

<style>
    @media (prefers-color-scheme: dark) {
        .container {
            fill: #1d1d1f;
            filter: url(#container-shadow) url(#subtle-shadow);
        }
        .center-circle {
            fill: #2d2d30;
            stroke: rgba(255,255,255,0.1);
        }
        .logo-path {
            fill: #f5f5f7;
        }
        .planet-rect {
            fill: #3d3d40;
            stroke: rgba(255,255,255,0.2);
            stroke-width: 1;
        }
        .github-planet {
            fill: #000000;
        }
        .github-icon {
            fill: #f5f5f7;
        }
        .pydantic-planet {
            fill: #E92063;
        }
        .pydantic-icon {
            fill: #ffffff;
        }
        .opentelemetry-planet {
            fill: #3d3d40;
            stroke: rgba(255,255,255,0.2);
            stroke-width: 1;
        }
        .opentelemetry-icon-orange {
            fill: #f5a800;
        }
        .opentelemetry-icon-blue {
            fill: #425cc7;
        }
        .git-planet {
            fill: #de4c36;
        }
        .git-icon {
            fill: #ffffff;
        }
        .redis-planet {
            fill: #ffffff;
            stroke: rgba(255,255,255,0.2);
            stroke-width: 1;
        }
        .redis-icon-dark {
            fill: #912626;
        }
        .redis-icon-red {
            fill: #c6302b;
        }
        .redis-icon-white {
            fill: #ffffff;
        }
        .redis-icon-darkred {
            fill: #621b1c;
        }
        .redis-icon-midred {
            fill: #9a2928;
        }
        .postgresql-planet {
            fill: #336791;
        }
        .postgresql-icon-black {
            fill: #000000;
        }
        .postgresql-icon-blue {
            fill: #336791;
        }
        .postgresql-icon-white {
            fill: #ffffff;
        }
    }

    @media (prefers-color-scheme: light) {
        .container {
            fill: #ffffff;
            filter: url(#container-shadow) url(#subtle-shadow);
        }
        .center-circle {
            fill: #ffffff;
            stroke: rgba(0,0,0,0.05);
        }
        .logo-path {
            fill: #022640;
        }
        .planet-rect {
            fill: #ffffff;
        }
        .github-planet {
            fill: #000000;
        }
        .github-icon {
            fill: #ffffff;
        }
        .pydantic-planet {
            fill: #E92063;
        }
        .pydantic-icon {
            fill: #ffffff;
        }
        .opentelemetry-planet {
            fill: #ffffff;
            stroke: rgba(0,0,0,0.1);
            stroke-width: 1;
        }
        .opentelemetry-icon-orange {
            fill: #f5a800;
        }
        .opentelemetry-icon-blue {
            fill: #425cc7;
        }
        .git-planet {
            fill: #de4c36;
        }
        .git-icon {
            fill: #ffffff;
        }
        .redis-planet {
            fill: #ffffff;
            stroke: rgba(0,0,0,0.1);
            stroke-width: 1;
        }
        .redis-icon-dark {
            fill: #912626;
        }
        .redis-icon-red {
            fill: #c6302b;
        }
        .redis-icon-white {
            fill: #ffffff;
        }
        .redis-icon-darkred {
            fill: #621b1c;
        }
        .redis-icon-midred {
            fill: #9a2928;
        }
        .postgresql-planet {
            fill: #336791;
        }
        .postgresql-icon-black {
            fill: #000000;
        }
        .postgresql-icon-blue {
            fill: #336791;
        }
        .postgresql-icon-white {
            fill: #ffffff;
        }
    }

    .center-circle {
        stroke-width: 1;
        filter: url(#logo-shadow);
    }

    @keyframes orbit {
        from {
            transform: rotate(0deg) translateX(150px) rotate(0deg);
        }
        to {
            transform: rotate(360deg) translateX(150px) rotate(-360deg);
        }
    }

    @keyframes orbit-2 {
        from {
            transform: rotate(0deg) translateX(120px) rotate(0deg);
        }
        to {
            transform: rotate(360deg) translateX(120px) rotate(-360deg);
        }
    }

    @keyframes orbit-3 {
        from {
            transform: rotate(0deg) translateX(180px) rotate(0deg);
        }
        to {
            transform: rotate(360deg) translateX(180px) rotate(-360deg);
        }
    }

    @keyframes orbit-4 {
        from {
            transform: rotate(0deg) translateX(140px) rotate(0deg);
        }
        to {
            transform: rotate(360deg) translateX(140px) rotate(-360deg);
        }
    }

    @keyframes orbit-5 {
        from {
            transform: rotate(0deg) translateX(165px) rotate(0deg);
        }
        to {
            transform: rotate(360deg) translateX(165px) rotate(-360deg);
        }
    }

    @keyframes orbit-6 {
        from {
            transform: rotate(0deg) translateX(135px) rotate(0deg);
        }
        to {
            transform: rotate(360deg) translateX(135px) rotate(-360deg);
        }
    }

    @keyframes orbit-7 {
        from {
            transform: rotate(0deg) translateX(155px) rotate(0deg);
        }
        to {
            transform: rotate(360deg) translateX(155px) rotate(-360deg);
        }
    }

    .planet-container {
        animation: orbit 60s linear infinite;
        transform-origin: 0 0;
        transform: rotate(0deg);
    }

    .planet-container-2 {
        animation: orbit-2 60s linear infinite;
        transform-origin: 0 0;
        animation-delay: -8.57s;  /* 60s / 7 = ~8.57s */
        transform: rotate(51.43deg);  /* 360° / 7 = ~51.43° */
    }

    .planet-container-3 {
        animation: orbit-3 60s linear infinite;
        transform-origin: 0 0;
        animation-delay: -17.14s;  /* 60s * 2/7 = ~17.14s */
        transform: rotate(102.86deg);  /* 360° * 2/7 = ~102.86° */
    }

    .planet-container-4 {
        animation: orbit-4 60s linear infinite;
        transform-origin: 0 0;
        animation-delay: -25.71s;  /* 60s * 3/7 = ~25.71s */
        transform: rotate(154.29deg);  /* 360° * 3/7 = ~154.29° */
    }

    .planet-container-5 {
        animation: orbit-5 60s linear infinite;
        transform-origin: 0 0;
        animation-delay: -34.29s;  /* 60s * 4/7 = ~34.29s */
        transform: rotate(205.71deg);  /* 360° * 4/7 = ~205.71° */
    }

    .planet-container-6 {
        animation: orbit-6 60s linear infinite;
        transform-origin: 0 0;
        animation-delay: -42.86s;  /* 60s * 5/7 = ~42.86s */
        transform: rotate(257.14deg);  /* 360° * 5/7 = ~257.14° */
    }

    .planet-container-7 {
        animation: orbit-7 60s linear infinite;
        transform-origin: 0 0;
        animation-delay: -51.43s;  /* 60s * 6/7 = ~51.43s */
        transform: rotate(308.57deg);  /* 360° * 6/7 = ~308.57° */
    }
</style>

<!--    <rect class="container"-->
<!--          x="50"-->
<!--          y="50"-->
<!--          width="500"-->
<!--          height="500"-->
<!--          rx="24"-->
<!--          ry="24"/>-->

    <circle class="center-circle" cx="300" cy="300" r="60"/>

    <g transform="translate(300, 300) scale(0.15) translate(-512, -512)">
        <path class="logo-path" d=" M366.776337,421.791626   C372.814362,409.353149 378.848877,397.324646 384.637482,385.178894   C391.787018,370.177429 398.678223,355.053040 405.783844,340.030365   C410.902863,329.207672 416.200653,318.469666 421.399170,307.684448   C426.951904,296.164337 432.454132,284.619812 438.033417,273.112579   C440.713959,267.583893 443.555939,262.133636 446.260101,256.616119   C448.442291,252.163742 447.453247,250.455093 442.537384,250.286911   C438.875488,250.161636 435.206055,250.234619 431.540161,250.254791   C428.842377,250.269638 427.510895,249.234573 427.974548,246.299515   C431.008453,227.092834 434.010284,207.881012 436.967560,188.662399   C437.509705,185.139236 439.084991,183.696945 442.928894,183.713470   C478.589691,183.866928 514.254578,183.540268 549.911133,183.958847   C564.706238,184.132538 577.954285,189.194229 587.930115,200.877335   C588.437439,201.471420 588.742310,202.238266 589.063354,202.790359   C588.154114,205.135223 586.156128,205.265778 584.467163,205.751083   C551.723755,215.159531 526.765869,234.994736 507.366058,262.601715   C499.647125,273.586121 494.520538,285.831879 488.659607,297.731903   C481.313019,312.648315 474.188721,327.674622 467.021088,342.678650   C458.354858,360.819489 449.193817,378.716797 440.936188,397.062378   C434.864075,410.552490 427.924561,423.650085 421.482666,436.976288   C412.148071,456.286560 402.949005,475.662323 393.621033,494.975800   C389.287689,503.947906 384.783051,512.837280 380.365570,521.768860   C379.560089,523.397461 378.626709,524.997742 378.798645,526.933411   C380.011169,528.383179 381.656891,528.589233 383.331909,528.578796   C408.653931,528.420776 433.975739,528.223633 459.297913,528.102600   C462.217194,528.088684 463.648285,526.893311 464.749969,524.128723   C473.729858,501.595062 483.126282,479.225067 491.906372,456.615173   C496.582611,444.573151 502.569977,432.872925 504.014618,419.777740   C505.165283,409.347321 502.239197,400.028198 495.283630,392.111237   C491.882324,388.239807 488.262115,384.561401 484.779022,380.760773   C483.689087,379.571411 482.185150,378.514526 482.899384,376.195068   C486.958282,375.258331 491.230255,374.964233 495.509155,374.991333   C525.678467,375.182495 555.769958,373.097992 585.862610,371.515625   C612.143188,370.133698 638.447571,369.844391 664.723999,368.639893   C687.340881,367.603149 709.949341,366.380493 732.562866,365.268280   C735.556396,365.121063 738.565308,365.251251 741.554443,365.057678   C746.726746,364.722687 750.542236,367.279541 752.384705,371.584320   C754.315857,376.096100 754.417969,381.258057 750.587891,385.148010   C741.124817,394.759003 731.468628,404.180817 721.834229,413.621704   C717.194275,418.168488 712.373352,422.530670 707.738037,427.082062   C704.397034,430.362579 701.093079,431.139313 697.196777,427.952850   C695.151184,426.279968 692.204956,425.437500 690.694519,423.441345   C688.102295,420.015381 688.282654,415.955322 690.556519,412.194977   C691.588867,410.487823 692.915527,408.950867 693.870361,407.206299   C695.863098,403.565247 694.668396,401.296600 690.530823,401.387329   C682.709900,401.558655 674.893372,402.015564 667.080566,402.452789   C650.458496,403.382996 633.848450,404.577454 617.217285,405.281067   C603.729736,405.851654 590.594543,407.766083 578.932129,414.935944   C564.090576,424.060303 552.896851,436.387909 546.868042,453.113281   C543.092468,463.587708 538.779236,473.870270 534.623108,484.205078   C529.352966,497.310272 523.965881,510.368469 518.718933,523.482849   C518.064331,525.118896 517.377380,526.918945 518.368591,529.406128   C525.712402,529.806458 533.292542,530.416748 540.882874,530.595154   C560.867371,531.064941 580.855225,531.427734 600.843750,531.676758   C615.548889,531.859924 624.840393,524.786499 629.040100,510.568634   C631.365051,502.697998 631.365051,502.695343 639.676880,502.729156   C642.509521,502.740662 645.357544,502.589844 648.171021,502.832336   C652.418335,503.198395 654.141968,505.743530 652.714355,509.717102   C647.095459,525.356934 641.344055,540.949097 635.669128,556.568848   C634.480225,559.841248 633.289185,563.121277 632.313354,566.460327   C631.305542,569.908813 629.129089,571.030457 625.638916,571.064636   C611.648926,571.201416 597.662415,571.432129 583.672668,571.884338   C558.032593,572.713135 532.373169,573.038269 506.719086,573.263794   C501.303497,573.311401 498.229034,574.945251 496.282776,580.218445   C489.375793,598.932617 482.142487,617.528076 474.884613,636.110657   C468.350616,652.839783 461.556274,669.467285 454.996552,686.186523   C447.530090,705.216858 440.301086,724.340698 432.769623,743.344910   C427.376251,756.953857 421.640717,770.427063 416.089417,783.973694   C414.516693,787.811523 413.032349,791.686218 411.548828,795.559814   C410.322083,798.763000 408.147980,800.034546 404.625488,800.000671   C381.299988,799.775940 357.972931,799.701782 334.646240,799.625854   C331.651611,799.616150 328.653992,800.015930 325.661652,799.970398   C323.582520,799.938904 320.800262,800.228333 320.387909,797.423767   C320.036530,795.033936 322.424561,794.312805 324.287109,793.543823   C340.331970,786.918823 353.612762,776.550415 364.774841,763.395020   C373.058868,753.631653 378.404266,742.210083 383.020691,730.387207   C388.458466,716.460632 394.050659,702.594421 399.490631,688.668701   C406.744537,670.099548 413.889679,651.487976 421.134918,632.915405   C424.574890,624.097351 428.155304,615.334290 431.642029,606.534363   C435.661255,596.390564 439.647339,586.233582 443.607697,576.184204   C441.306366,573.790833 438.629028,574.330078 436.263184,574.509583   C424.446503,575.406311 412.613129,575.082886 400.789551,575.171631   C355.971191,575.507996 311.159790,576.702271 266.334930,576.263306   C258.676025,576.188354 258.736633,576.280701 259.661591,568.975952   C261.060608,557.927185 262.453949,546.876038 263.655060,535.804810   C264.031372,532.336304 265.450562,530.574280 269.014618,530.809509   C269.346588,530.831421 269.685944,530.779175 270.013550,530.823303   C291.638245,533.733521 306.078156,521.276245 319.810669,507.440979   C333.101593,494.050568 340.265259,476.960480 348.115204,460.268311   C354.128204,447.482208 360.468811,434.850159 366.776337,421.791626  z"/>
    </g>

    <g transform="translate(300, 300)">
        <g class="planet-container">
            <g transform="translate(-25, -25)">
                <rect x="0" y="0" width="50" height="50" rx="12" ry="12" class="github-planet" filter="url(#logo-shadow)"/>
                <g transform="translate(7, 7) scale(1.5)">
                    <path class="github-icon" d="M11.9999 0.5302c-2.7924 0.0001 -5.4937 0.9939 -7.6204 2.8034C2.2527 5.1431 0.8392 7.6504 0.3919 10.4068c-0.4473 2.7563 0.1008 5.5819 1.5462 7.9712 1.4453 2.3891 3.6937 4.1861 6.3428 5.0693 0.588 0.1029 0.8085 -0.2499 0.8085 -0.5586 0 -0.2793 -0.0147 -1.2054 -0.0147 -2.1903 -2.9547 0.5439 -3.7191 -0.7202 -3.9543 -1.3817 -0.261 -0.6433 -0.6747 -1.2134 -1.2054 -1.6611 -0.4116 -0.2205 -0.9996 -0.7644 -0.0147 -0.7791 0.3761 0.0408 0.7367 0.1717 1.0515 0.3815 0.3147 0.2098 0.5743 0.4925 0.7566 0.8239 0.1608 0.2889 0.3771 0.5433 0.6364 0.7485 0.2593 0.2052 0.5566 0.3573 0.8748 0.4473 0.3182 0.0901 0.651 0.1166 0.9794 0.0779s0.646 -0.1418 0.9344 -0.3035c0.0509 -0.5979 0.3174 -1.1569 0.7498 -1.5729 -2.6166 -0.294 -5.3508 -1.3083 -5.3508 -5.8065 -0.0165 -1.1687 0.4147 -2.2995 1.2054 -3.1604 -0.3595 -1.0158 -0.3175 -2.1306 0.1176 -3.1164 0 0 0.9848 -0.3087 3.234 1.2054 1.9242 -0.5292 3.9556 -0.5292 5.8799 0 2.2491 -1.5288 3.234 -1.2054 3.234 -1.2054 0.4351 0.9858 0.4772 2.1006 0.1176 3.1164 0.7929 0.8594 1.2247 1.9913 1.2054 3.1604 0 4.5129 -2.7489 5.5125 -5.3655 5.8065 0.2806 0.2844 0.4967 0.626 0.6337 1.0013 0.137 0.3755 0.1916 0.776 0.1601 1.1743 0 1.573 -0.0147 2.837 -0.0147 3.2339 0 0.3087 0.2205 0.6762 0.8085 0.5586 2.6444 -0.8903 4.8863 -2.6915 6.3255 -5.0819 1.4393 -2.3905 1.9821 -5.2147 1.5317 -7.9684 -0.4504 -2.7536 -1.8647 -5.2576 -3.9906 -7.0649C17.4892 1.5247 14.7902 0.5317 11.9999 0.5302Z"/>
                </g>
            </g>
        </g>
    </g>

    <g transform="translate(300, 300)">
        <g class="planet-container-2">
            <g transform="translate(-22, -22)">
                <rect x="0" y="0" width="44" height="44" rx="10" ry="10" class="planet-rect" filter="url(#logo-shadow)"/>
                <g transform="translate(8, 8) scale(0.28)">
                    <path fill="#387eb8" d="M47.6611 1.24463c-23.863 0-22.3728 10.34847-22.3728 10.34847l.0266 10.7209h22.7719v3.2189H16.27S1 23.8011 1 47.8792c-.000002 24.078 13.328 23.2241 13.328 23.2241h7.9542V59.9302s-.4288-13.328 13.1151-13.328H57.983s12.6895.2052 12.6895-12.2638V13.7213S72.5991 1.24463 47.6611 1.24463ZM35.1047 8.45396c2.2656 0 4.0968 1.83114 4.0968 4.09684 0 2.2656-1.8312 4.0968-4.0968 4.0968-2.2657 0-4.0968-1.8312-4.0968-4.0968 0-2.2657 1.8311-4.09684 4.0968-4.09684Z"/>
                    <path fill="#ffe052" d="M48.3393 94.7555c23.8631 0 22.3729-10.3484 22.3729-10.3484l-.0266-10.7209H47.9137v-3.2189h31.8168s15.27 1.7317 15.27-22.3463-13.328-23.2242-13.328-23.2242h-7.9542v11.1731s.4288 13.328-13.1151 13.328H38.0175S25.328 49.1928 25.328 61.6618v20.6171s-1.9267 12.4766 23.0113 12.4766Zm12.5565-7.2093c-2.2657 0-4.0968-1.8312-4.0968-4.0968 0-2.2657 1.8311-4.0968 4.0968-4.0968 2.2656 0 4.0968 1.8311 4.0968 4.0968 0 2.2656-1.8312 4.0968-4.0968 4.0968Z"/>
                </g>
            </g>
        </g>
    </g>

    <g transform="translate(300, 300)">
        <g class="planet-container-3">
            <g transform="translate(-28, -28)">
                <rect x="0" y="0" width="56" height="56" rx="14" ry="14" class="pydantic-planet" filter="url(#logo-shadow)"/>
                <g transform="translate(10, 10) scale(1.5)">
                    <path class="pydantic-icon" d="m23.826 17.316 -4.23 -5.866 -6.847 -9.496c-0.348 -0.48 -1.151 -0.48 -1.497 0l-6.845 9.494 -4.233 5.868a0.925 0.925 0 0 0 0.46 1.417l11.078 3.626h0.002a0.92 0.92 0 0 0 0.572 0h0.002l11.077 -3.626c0.28 -0.092 0.5 -0.31 0.59 -0.592a0.916 0.916 0 0 0 -0.13 -0.825h0.002ZM12.001 4.07l4.44 6.158 -4.152 -1.36c-0.032 -0.01 -0.066 -0.008 -0.098 -0.016a0.8 0.8 0 0 0 -0.096 -0.016c-0.032 -0.004 -0.062 -0.016 -0.094 -0.016s-0.062 0.012 -0.094 0.016a0.74 0.74 0 0 0 -0.096 0.016c-0.032 0.006 -0.066 0.006 -0.096 0.016L7.59 10.221l-0.026 0.008 4.44 -6.158h-0.002Zm-6.273 8.7 4.834 -1.583 0.516 -0.168v9.19L2.41 17.372l3.317 -4.6Zm7.197 7.437V11.02l5.35 1.752 3.316 4.598 -8.666 2.838Z"/>
                </g>
            </g>
        </g>
    </g>

    <g transform="translate(300, 300)">
        <g class="planet-container-4">
            <g transform="translate(-24, -24)">
                <rect x="0" y="0" width="48" height="48" rx="12" ry="12" class="opentelemetry-planet" filter="url(#logo-shadow)"/>
                <g transform="translate(12, 12) scale(1)">
                    <path class="opentelemetry-icon-orange" d="M12.68295 13.093975c-1.001175 1.00105 -1.001175 2.6242 0 3.625275 1.00115 1.00105 2.624475 1.00105 3.62565 0 1.00115 -1.001075 1.00115 -2.624225 0 -3.625275 -1.001175 -1.001075 -2.6245 -1.001075 -3.62565 0ZM15.39325 15.806375c-0.495825 0.49575 -1.29915 0.49575 -1.79495 0 -0.495825 -0.495775 -0.495825 -1.299 0 -1.794775 0.4958 -0.49575 1.299125 -0.49575 1.79495 0 0.4958 0.4934 0.4958 1.299 0 1.794775Zm0.872425 -15.3257725 -1.570875 1.5707125c-0.3075 0.3074675 -0.3075 0.81276 0 1.120235L20.82815 9.30425c0.3075 0.30745 0.81285 0.30745 1.12035 0l1.570875 -1.570725c0.3075 -0.307475 0.3075 -0.812775 0 -1.120225L17.38365 0.4806025c-0.3075 -0.30746975 -0.810475 -0.30746975 -1.117975 0ZM5.26 20.551875c0.2789 -0.278875 0.2789 -0.734125 0 -1.012975l-0.79855 -0.798475c-0.2789 -0.278875 -0.734175 -0.278875 -1.013075 0l-1.6495475 1.649375 -0.0023825 0.002375 -0.45291 -0.45285c-0.25029 -0.250275 -0.6579075 -0.250275 -0.9058175 0 -0.2502905 0.25025 -0.2502905 0.657825 0 0.905725L3.155175 23.5622c0.250275 0.250275 0.6579 0.250275 0.905825 0 0.2479 -0.25025 0.250275 -0.657825 0 -0.905725l-0.452925 -0.45285 0.0024 -0.002375 1.649525 -1.649375Z"/>
                    <path class="opentelemetry-icon-blue" d="M13.569775 4.990025 10.08 8.47945c-0.3099 0.30985 -0.3099 0.819925 0 1.129775l2.154875 2.15465c1.523225 -1.0964 3.659025 -0.960525 5.029675 0.409975l1.7449 -1.744725c0.309875 -0.30985 0.309875 -0.8199 0 -1.12975L14.69965 4.990025c-0.309875 -0.312225 -0.82 -0.312225 -1.129875 0ZM11.329075 12.672l-1.272925 -1.2728c-0.29795 -0.297925 -0.786625 -0.297925 -1.0846 0L4.483 15.889675c-0.297975 0.29795 -0.297975 0.78655 0 1.0845l2.543425 2.54315c0.297975 0.29795 0.78665 0.29795 1.0846 0l2.8867 -2.89115c-0.610225 -1.26085 -0.500575 -2.7839 0.33135 -3.954175Z"/>
                </g>
            </g>
        </g>
    </g>

    <g transform="translate(300, 300)">
        <g class="planet-container-5">
            <g transform="translate(-26, -26)">
                <rect x="0" y="0" width="52" height="52" rx="13" ry="13" class="git-planet" filter="url(#logo-shadow)"/>
                <g transform="translate(14, 14) scale(1)">
                    <path class="git-icon" d="M23.30675 10.95315 13.0463 0.693465c-0.59045 -0.59098175 -1.548875 -0.59098175 -2.140125 0l-2.130575 2.130585 2.70275 2.702725c0.6281 -0.2122 1.348275 -0.069875 1.849 0.430875 0.503075 0.503825 0.644375 1.230175 0.427 1.86035l2.60475 2.60475c0.630175 -0.2171 1.3573 -0.076575 1.860625 0.427525 0.7034 0.70315 0.7034 1.842825 0 2.546475 -0.703675 0.703675 -1.84335 0.703675 -2.54725 0 -0.5291 -0.5296 -0.659825 -1.30675 -0.391925 -1.9586l-2.429175 -2.42915 -0.00025 6.3925c0.17145 0.0851 0.333375 0.1983 0.476225 0.340625 0.7034 0.70315 0.7034 1.842825 0 2.547 -0.70365 0.7034 -1.84385 0.7034 -2.546475 0 -0.7034 -0.704175 -0.7034 -1.84385 0 -2.547 0.173775 -0.173525 0.3749 -0.304775 0.589425 -0.392975V8.897075c-0.214525 -0.08765 -0.415375 -0.218125 -0.589425 -0.39295 -0.532975 -0.5322 -0.661125 -1.314225 -0.38805 -1.96865L7.72875 3.8709 0.69343 10.9057c-0.59124 0.5915 -0.59124 1.549925 0 2.1409L10.953875 23.30655c0.590725 0.590975 1.5489 0.590975 2.1404 0l10.212475 -10.21225c0.591 -0.59125 0.591 -1.550175 0 -2.14115Z"/>
                </g>
            </g>
        </g>
    </g>

    <g transform="translate(300, 300)">
        <g class="planet-container-6">
            <g transform="translate(-23, -23)">
                <rect x="0" y="0" width="46" height="46" rx="11" ry="11" class="redis-planet" filter="url(#logo-shadow)"/>
                <g transform="translate(11, 11) scale(1)">
                    <path class="redis-icon-dark" d="M22.82925 17.422075c-1.254075 0.6537 -7.75075 3.3249 -9.1339 4.0459 -1.38305 0.721175 -2.1514 0.7142 -3.244 0.19185C9.35875 21.1375 2.445115 18.34485 1.19976 17.749625 0.577265 17.4521 0.25 17.201025 0.25 16.963825V14.5885s9.0006 -1.959475 10.4537 -2.4807c1.453 -0.52135 1.957175 -0.54015 3.1937 -0.087225C15.13405 12.473625 22.527875 13.80765 23.75 14.255275c0 0 -0.00055 2.121475 -0.00055 2.3417 0.000175 0.234825 -0.281825 0.492425 -0.9202 0.8251Z"/>
                    <path class="redis-icon-red" d="M22.8288 15.06085C21.574775 15.71425 15.078325 18.385525 13.695225 19.1065c-1.383025 0.72125 -2.15135 0.714175 -3.243925 0.19185 -1.09265 -0.52195 -8.005965 -3.31505 -9.25128 -3.909975 -1.245316 -0.5953 -1.271478 -1.005 -0.0481025 -1.484C2.3752025 13.4252 9.2506 10.72775 10.703825 10.20645c1.452975 -0.52115 1.957025 -0.54015 3.193525 -0.087025 1.2366 0.452925 7.694325 3.023325 8.916325 3.470825 1.222275 0.448075 1.269175 0.8169 0.015125 1.4706Z"/>
                    <path class="redis-icon-dark" d="M22.82925 13.578675c-1.254075 0.6537 -7.75075 3.324875 -9.1339 4.04615 -1.38305 0.7209 -2.1514 0.713925 -3.244 0.1916 -1.0927 -0.522075 -8.006235 -3.315 -9.25159 -3.910225C0.577265 13.608675 0.25 13.357875 0.25 13.120675v-2.3756s9.0006 -1.959375 10.4537 -2.4807c1.453 -0.521225 1.957175 -0.54015 3.1937 -0.0872 1.23665 0.453025 8.630475 1.786775 9.8526 2.2345 0 0 -0.00055 2.121475 -0.00055 2.341975 0.000175 0.23475 -0.281825 0.492325 -0.9202 0.825025Z"/>
                    <path class="redis-icon-red" d="M22.8288 11.2174c-1.254025 0.6536 -7.750475 3.3247 -9.133575 4.04595 -1.383025 0.720975 -2.15135 0.7139 -3.243925 0.191575 -1.09265 -0.52195 -8.005965 -3.31495 -9.25128 -3.909975 -1.245316 -0.595125 -1.271478 -1.0049 -0.0481025 -1.484075C2.3752025 9.58195 9.2506 6.884325 10.703825 6.3631c1.452975 -0.521225 1.957025 -0.540125 3.193525 -0.0871 1.2366 0.452925 7.694325 3.023125 8.916325 3.470825 1.222275 0.447875 1.269175 0.817 0.015125 1.470575Z"/>
                    <path class="redis-icon-dark" d="M22.82925 9.592575c-1.254075 0.6537 -7.75075 3.325 -9.1339 4.046275 -1.38305 0.720975 -2.1514 0.713925 -3.244 0.191575 -1.0927 -0.522075 -8.006235 -3.315075 -9.25159 -3.910125C0.577265 9.6227 0.25 9.3718 0.25 9.134775v-2.375675s9.0006 -1.9593 10.4537 -2.480525c1.453 -0.521325 1.957175 -0.54015 3.1937 -0.087225 1.23665 0.45305 8.630475 1.7868 9.8526 2.2345 0 0 -0.00055 2.1215 -0.00055 2.3419 0.000175 0.23455 -0.281825 0.49215 -0.9202 0.824825Z"/>
                    <path class="redis-icon-red" d="M22.8288 7.23135c-1.254025 0.653575 -7.750475 3.324875 -9.133575 4.045925 -1.383025 0.720975 -2.15135 0.7139 -3.243925 0.191775 -1.092575 -0.52215 -8.005965 -3.314975 -9.25128 -3.9101 -1.245316 -0.5951 -1.271478 -1.004975 -0.0481025 -1.484075C2.3752025 5.5959 9.2506 2.898525 10.703825 2.377125c1.452975 -0.5213125 1.957025 -0.54004 3.193525 -0.0870225C15.13395 2.743125 21.591675 5.31335 22.813675 5.761025c1.222275 0.4476 1.269175 0.816725 0.015125 1.470325Z"/>
                    <path class="redis-icon-white" d="m14.8717 4.9205 -2.02035 0.209775 -0.45235 1.0883 -0.730575 -1.21445 -2.332975 -0.209675 1.740825 -0.627775 -0.522275 -0.963675 1.629775 0.637425 1.536525 -0.503075 -0.415275 0.996475 1.566675 0.586675Z"/>
                    <path class="redis-icon-white" d="m12.278325 10.200525 -3.77075 -1.56395 5.40325 -0.829325 -1.6325 2.393275Z"/>
                    <path class="redis-icon-white" d="M7.0508 5.525525c1.594975 0 2.88795 0.501225 2.88795 1.119425 0 0.6183 -1.292975 1.11945 -2.88795 1.11945 -1.5949 0 -2.88795 -0.50115 -2.88795 -1.11945 0 -0.6182 1.29305 -1.119425 2.88795 -1.119425Z"/>
                    <path class="redis-icon-darkred" d="m17.259525 5.21815 3.197825 1.2637 -3.1951 1.26245 -0.002725 -2.52615Z"/>
                    <path class="redis-icon-midred" d="m13.721675 6.617575 3.53785 -1.399425 0.002725 2.52615 -0.34685 0.135725 -3.193725 -1.26245Z"/>
                </g>
            </g>
        </g>
    </g>

    <g transform="translate(300, 300)">
        <g class="planet-container-7">
            <g transform="translate(-27, -27)">
                <rect x="0" y="0" width="54" height="54" rx="13" ry="13" class="postgresql-planet" filter="url(#logo-shadow)"/>
                <g transform="translate(15, 15) scale(1)">
                      <path fill="#000000" d="M23.33655 14.326975c-0.137 -0.41485 -0.495875 -0.703875 -0.960025 -0.77325 -0.218825 -0.032675 -0.469475 -0.018725 -0.766025 0.042425 -0.516925 0.10665 -0.90045 0.147225 -1.180325 0.155125 1.056425 -1.7837 1.915475 -3.817825 2.410025 -5.73255 0.79965 -3.096025 0.372325 -4.50645 -0.127 -5.144475C21.391675 1.1856675 19.463575 0.2784775 17.1374 0.25067c-1.2408 -0.015145 -2.3302 0.2298575 -2.8984 0.4059975 -0.5291 -0.093295 -1.09805 -0.14543 -1.695025 -0.155085 -1.118825 -0.017835 -2.1075 0.2260575 -2.952275 0.727355 -0.467775 -0.1580925 -1.2183 -0.3810375 -2.085125 -0.523355 -2.03875 -0.3347075 -3.68185 -0.073875 -4.883675 0.775165C1.1675425 2.508775 0.49285 4.294875 0.6176475 6.789475c0.039575 0.79205 0.48267 3.201825 1.1802625 5.48725 0.4009325 1.313575 0.828465 2.40445 1.270715 3.2425 0.62715 1.1884 1.2982 1.88825 2.051575 2.13955 0.4223 0.140725 1.1895 0.2392 1.996475 -0.43275 0.102275 0.123775 0.238675 0.2469 0.419825 0.361175 0.22995 0.145075 0.511225 0.2636 0.79205 0.333825 1.01225 0.253075 1.960375 0.18975 2.769275 -0.1649 0.00495 0.14385 0.0088 0.2813 0.012075 0.399975 0.005375 0.19255 0.01065 0.3813 0.017725 0.557825 0.047925 1.1937 0.129125 2.12185 0.36975 2.771225 0.0132 0.035775 0.030975 0.090175 0.04975 0.14785 0.12 0.367575 0.3208 0.98285 0.831425 1.464775 0.5289 0.49915 1.16855 0.652275 1.754375 0.652225 0.293825 0 0.574175 -0.038525 0.820025 -0.091225 0.876525 -0.187825 1.87195 -0.474025 2.592025 -1.4993 0.68075 -0.9693 1.011725 -2.4292 1.071625 -4.729575 0.00775 -0.065 0.014925 -0.1271 0.021825 -0.186325 0.00465 -0.039925 0.0094 -0.080775 0.0142 -0.121525l0.160425 0.0141 0.0413 0.0028c0.89275 0.040675 1.9843 -0.14865 2.654675 -0.460025 0.529725 -0.24585 2.227175 -1.141975 1.827525 -2.35195Z" stroke-width="0.25"></path>
                      <path fill="#336791" d="M21.8101 14.5623c-2.65435 0.547525 -2.836825 -0.35115 -2.836825 -0.35115C21.77585 10.0526 22.9474 4.773925 21.936375 3.482 19.178175 -0.04211275 14.403625 1.6245675 14.32395 1.6678375l-0.02565 0.0045925c-0.524425 -0.10886 -1.1113 -0.1737125 -1.7709 -0.1844775 -1.20105 -0.0196825 -2.1121 0.3148675 -2.803425 0.8391175 0 0 -8.5173475 -3.508815 -8.1212175 4.413005 0.08427 1.6853 2.4155175 12.751775 5.1961175 9.409175 1.016325 -1.22225 1.9983 -2.255725 1.9983 -2.255725 0.487725 0.324 1.0716 0.489275 1.683725 0.4299l0.047525 -0.040375c-0.014775 0.151775 -0.008025 0.3002 0.01905 0.475925 -0.716325 0.800325 -0.505825 0.94085 -1.9378 1.235625 -1.44895 0.2986 -0.59775 0.83025 -0.042 0.969175 0.67375 0.1685 2.23245 0.407175 3.28565 -1.067175l-0.042 0.168225c0.280675 0.2248 0.477775 1.46225 0.444725 2.584 -0.033025 1.1218 -0.055075 1.89195 0.166075 2.4935 0.22115 0.601575 0.44155 1.955075 2.324 1.5517 1.572975 -0.337075 2.388075 -1.2106 2.501475 -2.667675 0.080475 -1.0359 0.262575 -0.882775 0.274075 -1.8089l0.146075 -0.43845c0.168425 -1.4042 0.02675 -1.857225 0.99585 -1.646525l0.2355 0.020675c0.71325 0.032475 1.646775 -0.1147 2.194675 -0.369375 1.179775 -0.5475 1.8795 -1.461675 0.716225 -1.221475h0.0001Z" stroke-width="0.25"></path>
                      <path fill="#ffffff" d="M10.222625 7.493775c-0.23915 -0.0333 -0.4558 -0.002475 -0.5654 0.080475 -0.0617 0.0467 -0.08075 0.100775 -0.08585 0.13805 -0.013775 0.098625 0.05535 0.207625 0.097775 0.263875 0.1201 0.1592 0.2956 0.26865 0.469325 0.292775 0.02515 0.003475 0.050175 0.005175 0.075075 0.005175 0.2897 0 0.553 -0.22555 0.576225 -0.392025 0.029025 -0.2085 -0.27365 -0.347475 -0.56715 -0.388325Z" stroke-width="0.25"></path>
                      <path fill="#ffffff" d="M18.146775 7.50035c-0.0228 -0.163425 -0.3137 -0.210025 -0.589675 -0.171675 -0.275575 0.038425 -0.542825 0.1628 -0.520525 0.3266 0.01795 0.127375 0.24785 0.344825 0.52015 0.344775 0.02295 0 0.046175 -0.001525 0.06955 -0.0048 0.181725 -0.025175 0.315075 -0.140575 0.3784 -0.2071 0.0965 -0.101325 0.152275 -0.21435 0.1421 -0.2878Z" stroke-width="0.25"></path>
                      <path fill="#ffffff" d="M22.693375 14.500275c-0.1012 -0.306075 -0.426925 -0.404575 -0.968175 -0.292775 -1.607 0.33165 -2.1825 0.1019 -2.3715 -0.03725 1.249125 -1.902925 2.276675 -4.203025 2.831 -6.34915 0.262625 -1.016575 0.407675 -1.96065 0.4195 -2.730125 0.0131 -0.844725 -0.1307 -1.465325 -0.427425 -1.84445 -1.1962 -1.52849 -2.951725 -2.3483475 -5.076875 -2.37088 -1.460925 -0.01641 -2.695275 0.357505 -2.934575 0.46262 -0.50395 -0.125325 -1.053325 -0.2022625 -1.651325 -0.212075 -1.0968 -0.01773 -2.044775 0.2448425 -2.8297 0.7800175 -0.340925 -0.126855 -1.22205 -0.4293225 -2.299525 -0.602875 -1.862925 -0.2999875 -3.343225 -0.072715 -4.39965 0.675695C1.7245975 2.872075 1.14267 4.468425 1.2554375 6.723625c0.03794 0.7588 0.470215 3.0929 1.1525075 5.32825C3.306 14.993975 4.282175 16.65955 5.30935 17.0021c0.1202 0.040125 0.258875 0.068175 0.4117 0.068175 0.3747 0 0.83405 -0.1689 1.312025 -0.7435 0.7939 -0.9551 1.535125 -1.755425 1.80835 -2.046225 0.4038 0.216775 0.8473 0.33775 1.30105 0.3499 0.0008 0.011875 0.002025 0.02375 0.003075 0.035575 -0.091025 0.10795 -0.1657 0.202575 -0.229325 0.28335 -0.31435 0.399025 -0.379775 0.4821 -1.391675 0.690475 -0.287775 0.059375 -1.05235 0.216925 -1.063475 0.7528 -0.0122 0.58545 0.9036 0.83135 1.007975 0.857425 0.363625 0.091025 0.7139 0.135925 1.047975 0.135925 0.812525 -0.00005 1.527475 -0.26705 2.0989 -0.783725 -0.017625 2.08725 0.06945 4.144 0.32005 4.770675 0.2052 0.51295 0.706675 1.766725 2.2906 1.766625 0.23235 0 0.488225 -0.027025 0.769625 -0.087325 1.653025 -0.35445 2.370825 -1.085025 2.64855 -2.695725 0.148575 -0.8608 0.403625 -2.91645 0.5235 -4.019025 0.253125 0.078925 0.579025 0.115075 0.9313 0.115025 0.73475 0 1.582525 -0.156075 2.114225 -0.402875 0.597225 -0.27735 1.675075 -0.958075 1.4796 -1.549375ZM18.756825 7.0494c-0.005475 0.325525 -0.050275 0.62105 -0.097775 0.929525 -0.051075 0.33175 -0.10395 0.67475 -0.11725 1.091125 -0.01315 0.405225 0.037475 0.826525 0.086425 1.233875 0.0989 0.822875 0.200375 1.670075 -0.1925 2.506025 -0.06105 -0.10845 -0.119975 -0.22675 -0.174025 -0.357775 -0.0488 -0.11835 -0.154825 -0.308475 -0.301575 -0.571625 -0.57115 -1.024225 -1.9086 -3.42275 -1.22395 -4.4015 0.2039 -0.291375 0.72145 -0.59085 2.02065 -0.42965Zm-1.57475 -5.514575c1.904075 0.0420575 3.41025 0.7543725 4.476675 2.11705 0.817925 1.04525 -0.082725 5.801225 -2.69005 9.904225 -0.02575 -0.032725 -0.051975 -0.06575 -0.0791 -0.09965 -0.010825 -0.01355 -0.02185 -0.027325 -0.032975 -0.04125 0.673725 -1.112725 0.541975 -2.213625 0.424725 -3.189725 -0.048175 -0.400575 -0.093675 -0.778925 -0.082125 -1.13425 0.012 -0.376775 0.0618 -0.699775 0.109925 -1.01215 0.05925 -0.385 0.119475 -0.7833 0.10285 -1.252875 0.0124 -0.049225 0.0174 -0.107425 0.010925 -0.1765 -0.042425 -0.450325 -0.5565 -1.797875 -1.604375 -3.0177 -0.5731 -0.6671 -1.409 -1.4137225 -2.550275 -1.9172875 0.4909 -0.1017375 1.162225 -0.196615 1.9138 -0.1798875ZM6.5273 15.906225c-0.526575 0.6331 -0.89025 0.5118 -1.009825 0.47195 -0.779225 -0.259925 -1.683325 -1.906775 -2.480425 -4.518325 -0.689735 -2.259675 -1.0928325 -4.531925 -1.1247025 -5.1691 -0.100735 -2.015125 0.38774 -3.419525 1.4519025 -4.174225 1.73185 -1.22818 4.579225 -0.4930675 5.72335 -0.1202075 -0.016475 0.0162 -0.033575 0.0313975 -0.049875 0.04786 -1.877425 1.8961225 -1.8329 5.1356475 -1.8283 5.3336475 -0.00015 0.0764 0.006225 0.184575 0.015025 0.333375 0.0323 0.54485 0.0924 1.55895 -0.068175 2.707375 -0.149275 1.0672 0.179675 2.111725 0.9024 2.8658 0.074825 0.078025 0.152925 0.151325 0.2336 0.2203 -0.321725 0.344525 -1.02085 1.106325 -1.764975 2.00155Zm2.006275 -2.676975c-0.5825 -0.60775 -0.847025 -1.453125 -0.725875 -2.3196 0.1696 -1.213175 0.106975 -2.26975 0.07335 -2.837375 -0.0047 -0.079425 -0.00885 -0.149025 -0.01135 -0.20395 0.2743 -0.24315 1.545325 -0.92425 2.451725 -0.71655 0.4137 0.094775 0.665675 0.3764 0.770475 0.860925 0.54235 2.508225 0.0718 3.55365 -0.306275 4.393725 -0.07795 0.173075 -0.15155 0.336675 -0.21445 0.50595l-0.0487 0.1308c-0.123375 0.3308 -0.23815 0.63835 -0.309275 0.930425 -0.619175 -0.0019 -1.221575 -0.266375 -1.679625 -0.74435Zm0.09505 3.3827c-0.1808 -0.045175 -0.343425 -0.12365 -0.438825 -0.1887 0.079675 -0.037525 0.221525 -0.0885 0.467475 -0.13915 1.1904 -0.245125 1.374175 -0.418025 1.77565 -0.927775 0.092075 -0.116825 0.1964 -0.249325 0.340875 -0.4107l0.00015 -0.0002c0.21525 -0.24095 0.313675 -0.2001 0.492175 -0.126075 0.1447 0.0599 0.285575 0.2412 0.342725 0.440775 0.027025 0.09425 0.057425 0.273175 -0.04195 0.412325 -0.838625 1.1742 -2.06065 1.159125 -2.938275 0.9395Zm6.2297 5.79715c-1.45625 0.312025 -1.97185 -0.431 -2.311625 -1.280425 -0.2193 -0.5484 -0.32705 -3.021275 -0.2506 -5.752075 0.001025 -0.036375 -0.00415 -0.07145 -0.014175 -0.10445 -0.008725 -0.063675 -0.022125 -0.1281 -0.0407 -0.192975 -0.11375 -0.397325 -0.39085 -0.729725 -0.723275 -0.8675 -0.1321 -0.054725 -0.37455 -0.155125 -0.6659 -0.080625 0.062175 -0.255975 0.169925 -0.545 0.2867 -0.858l0.049025 -0.131725c0.0552 -0.148425 0.124375 -0.3022 0.1976 -0.464925 0.395675 -0.879025 0.93755 -2.082925 0.34945 -4.80275 -0.220325 -1.0187 -0.9559 -1.516125 -2.07105 -1.400625 -0.668575 0.069175 -1.28015 0.338925 -1.5852 0.4936 -0.0656 0.033225 -0.1256 0.065325 -0.181625 0.0966 0.0851 -1.026425 0.406825 -2.9446 1.61015 -4.158225 0.7576 -0.76408 1.766625 -1.141425 2.996025 -1.12111 2.422325 0.0396825 3.97565 1.282785 4.8523 2.318685 0.755375 0.892675 1.164425 1.79185 1.327675 2.276775 -1.22765 -0.124775 -2.0626 0.117575 -2.4859 0.722675 -0.9208 1.31625 0.503775 3.871075 1.18845 5.098875 0.125525 0.22505 0.233925 0.4195 0.268 0.50215 0.22295 0.540325 0.5116 0.90105 0.72235 1.164425 0.0646 0.080675 0.127275 0.158925 0.174925 0.227275 -0.3718 0.107225 -1.039675 0.35485 -0.97885 1.59285 -0.049075 0.62125 -0.398175 3.5296 -0.575475 4.557175 -0.2341 1.3575 -0.73365 1.863175 -2.138275 2.164325Zm6.07845 -6.95605c-0.380175 0.1765 -1.01645 0.3089 -1.620925 0.3373 -0.667625 0.031275 -1.00745 -0.074775 -1.0874 -0.14 -0.03755 -0.771475 0.24965 -0.8521 0.55355 -0.937425 0.04775 -0.01345 0.09435 -0.0265 0.1393 -0.042225 0.027975 0.02275 0.058575 0.045325 0.092075 0.06745 0.5366 0.354175 1.493725 0.392375 2.84485 0.1135 0.00495 -0.00105 0.009925 -0.002 0.014825 -0.003 -0.1822 0.170375 -0.494075 0.399075 -0.936275 0.6044Z" stroke-width="0.25"></path>
                </g>
            </g>
        </g>
    </g>
</svg>